# xmcd
#
# Track frame offsets: 
#        150
#        18606
#        32683
#        49941
#        64276
#        83536
#        97721
#        117385
#        130614
#        148881
#        167541
#        176102
#        181114
#        210140
#        224674
#        240297
#
# Disc length: 3261 seconds
#
# Revision: 2
# Processed by: cddbd v1.5.2PL0 Copyright (c) Steve Scherf et al.
# Submitted via: ExactAudioCopy v0.95b4
#
DISCID=d40cbb10
DTITLE=John Baldry - Everything Stops For Tea {Rem and Exp 2005}
DYEAR=1972
DGENRE=Blues
TTITLE0=Intro: Come Back Again
TTITLE1=Seventh Son
TTITLE2=Wild Mountain Thyme
TTITLE3=Iko Iko
TTITLE4=Jubilee Cloud
TTITLE5=Everything Stops For Tea
TTITLE6=You Can't Judge A Book
TTITLE7=Mother Ain't Dead
TTITLE8=Hambone
TTITLE9=Lord Remember Me
TTITLE10=Armit's Trousers
TTITLE11=Radio Spot #1
TTITLE12=Bring My Baby Back To Me (Live)
TTITLE13=Only Love Can Break Your Heart
TTITLE14=I'm Just A Rake And Ramblin' Boy
TTITLE15=Radio Spot #2
EXTD=YEAR: 1972
EXTT0=
EXTT1=
EXTT2=
EXTT3=
EXTT4=
EXTT5=
EXTT6=
EXTT7=
EXTT8=
EXTT9=
EXTT10=
EXTT11=
EXTT12=
EXTT13=
EXTT14=
EXTT15=
PLAYORDER=
